<mxfile host="Electron" agent="Mozilla/5.0 (Windows NT 10.0; Win64; x64) AppleWebKit/537.36 (KHTML, like Gecko) draw.io/24.7.17 Chrome/128.0.6613.36 Electron/32.0.1 Safari/537.36" version="24.7.17">
  <diagram name="Page-1" id="sKje1HJhAPEM7sSQCKA_">
    <mxGraphModel dx="880" dy="524" grid="1" gridSize="10" guides="1" tooltips="1" connect="1" arrows="1" fold="1" page="1" pageScale="1" pageWidth="827" pageHeight="1169" math="0" shadow="0">
      <root>
        <mxCell id="0" />
        <mxCell id="1" parent="0" />
        <mxCell id="xPSHra_Oyg-PFu_QpWZL-6" style="edgeStyle=orthogonalEdgeStyle;rounded=0;orthogonalLoop=1;jettySize=auto;html=1;entryX=0;entryY=0.5;entryDx=0;entryDy=0;" edge="1" parent="1" source="xPSHra_Oyg-PFu_QpWZL-1" target="xPSHra_Oyg-PFu_QpWZL-2">
          <mxGeometry relative="1" as="geometry" />
        </mxCell>
        <mxCell id="xPSHra_Oyg-PFu_QpWZL-1" value="HELP&lt;div&gt;REQUEST&lt;/div&gt;&lt;div&gt;SERVICE&lt;/div&gt;" style="rounded=0;whiteSpace=wrap;html=1;" vertex="1" parent="1">
          <mxGeometry x="110" y="360" width="120" height="60" as="geometry" />
        </mxCell>
        <mxCell id="xPSHra_Oyg-PFu_QpWZL-7" style="edgeStyle=orthogonalEdgeStyle;rounded=0;orthogonalLoop=1;jettySize=auto;html=1;" edge="1" parent="1" source="xPSHra_Oyg-PFu_QpWZL-2" target="xPSHra_Oyg-PFu_QpWZL-4">
          <mxGeometry relative="1" as="geometry" />
        </mxCell>
        <mxCell id="xPSHra_Oyg-PFu_QpWZL-2" value="REVIEW&lt;div&gt;EXISTING&lt;/div&gt;&lt;div&gt;REQUESTS&lt;/div&gt;" style="rounded=1;whiteSpace=wrap;html=1;" vertex="1" parent="1">
          <mxGeometry x="360" y="100" width="120" height="60" as="geometry" />
        </mxCell>
        <mxCell id="xPSHra_Oyg-PFu_QpWZL-3" value="EMERGENCY RECORDS" style="html=1;dashed=0;whiteSpace=wrap;shape=partialRectangle;right=0;" vertex="1" parent="1">
          <mxGeometry x="680" y="235" width="140" height="70" as="geometry" />
        </mxCell>
        <mxCell id="xPSHra_Oyg-PFu_QpWZL-8" style="edgeStyle=orthogonalEdgeStyle;rounded=0;orthogonalLoop=1;jettySize=auto;html=1;" edge="1" parent="1" source="xPSHra_Oyg-PFu_QpWZL-4" target="xPSHra_Oyg-PFu_QpWZL-5">
          <mxGeometry relative="1" as="geometry" />
        </mxCell>
        <mxCell id="xPSHra_Oyg-PFu_QpWZL-4" value="FIND&amp;nbsp;&lt;div&gt;SUPERUSER&lt;/div&gt;" style="rounded=1;whiteSpace=wrap;html=1;" vertex="1" parent="1">
          <mxGeometry x="360" y="240" width="120" height="60" as="geometry" />
        </mxCell>
        <mxCell id="xPSHra_Oyg-PFu_QpWZL-9" style="edgeStyle=orthogonalEdgeStyle;rounded=0;orthogonalLoop=1;jettySize=auto;html=1;entryX=0;entryY=0.5;entryDx=0;entryDy=0;" edge="1" parent="1" source="xPSHra_Oyg-PFu_QpWZL-5" target="xPSHra_Oyg-PFu_QpWZL-3">
          <mxGeometry relative="1" as="geometry" />
        </mxCell>
        <mxCell id="xPSHra_Oyg-PFu_QpWZL-5" value="CREATE HELP&lt;div&gt;REQUEST&lt;/div&gt;" style="rounded=1;whiteSpace=wrap;html=1;" vertex="1" parent="1">
          <mxGeometry x="360" y="400" width="120" height="60" as="geometry" />
        </mxCell>
      </root>
    </mxGraphModel>
  </diagram>
</mxfile>
